<svg width="161" height="35" viewBox="0 0 161 35" fill="none" xmlns="http://www.w3.org/2000/svg">
<path d="M20.8561 24.64C20.8561 30.208 19.2721 34.48 9.62412 34.48C7.12812 34.48 3.33612 34.24 0.120117 33.712V1.072L7.03212 0.112V11.44C8.90412 10.72 11.1121 10.144 13.6561 10.144C18.8401 10.144 20.8561 13.36 20.8561 18.592V24.64ZM7.03212 17.44V28.384C8.04012 28.48 8.90412 28.48 9.86412 28.48C13.3201 28.48 13.9441 26.896 13.9441 24.688V18.64C13.9441 17.104 13.2721 16.144 11.4481 16.144C9.96012 16.144 8.32812 16.768 7.03212 17.44Z" fill="white"/>
<path d="M31.3734 34H24.4614V1.072L31.3734 0.112V34Z" fill="white"/>
<path d="M35.9532 10.624H42.8652V26.08C42.8652 27.136 43.3452 27.76 44.5452 27.76C45.7932 27.76 48.0972 26.896 49.5852 26.08V10.624H56.4972V34H51.3612L50.6412 32.224C47.7612 33.616 44.0172 34.48 41.3292 34.48C37.3452 34.48 35.9532 31.504 35.9532 26.992V10.624Z" fill="white"/>
<path d="M79.5725 24.736H66.9965V25.408C66.9965 28.096 68.0525 28.816 71.2205 28.816C73.3805 28.816 76.2605 28.432 78.3245 27.808L79.3325 32.992C77.2205 33.76 73.8125 34.48 70.5485 34.48C62.9645 34.48 60.0845 30.736 60.0845 24.976V19.504C60.0845 14.464 62.3405 10.144 70.1165 10.144C77.8925 10.144 79.5725 14.752 79.5725 19.84V24.736ZM73.0445 19.552V18.544C73.0445 16.912 72.5645 15.568 70.1645 15.568C67.7645 15.568 66.9965 16.912 66.9965 18.544V19.552H73.0445Z" fill="white"/>
<path d="M101.524 34L96.9642 18.736L92.4522 34H84.9642L80.9322 10.624H87.2682L89.4762 24.304L93.5562 10.624H100.468L104.5 24.304L106.708 10.624H113.044L109.012 34H101.524Z" fill="white"/>
<path d="M122.504 7.696H115.592V0.351999H122.504V7.696ZM122.504 34H115.592V10.624H122.504V34Z" fill="white"/>
<path d="M140.428 16.672C138.364 17.488 135.724 18.688 134.236 19.744V34H127.324V10.624H133.084L133.564 12.88C135.004 11.92 137.98 10.528 139.852 10.144L140.428 16.672Z" fill="white"/>
<path d="M160.719 24.736H148.143V25.408C148.143 28.096 149.199 28.816 152.367 28.816C154.527 28.816 157.407 28.432 159.471 27.808L160.479 32.992C158.367 33.76 154.959 34.48 151.695 34.48C144.111 34.48 141.231 30.736 141.231 24.976V19.504C141.231 14.464 143.487 10.144 151.263 10.144C159.039 10.144 160.719 14.752 160.719 19.84V24.736ZM154.191 19.552V18.544C154.191 16.912 153.711 15.568 151.311 15.568C148.911 15.568 148.143 16.912 148.143 18.544V19.552H154.191Z" fill="white"/>
</svg>
